<?xml version="1.0" encoding="UTF-8" standalone="no"?><!DOCTYPE svg PUBLIC "-//W3C//DTD SVG 1.1//EN" "http://www.w3.org/Graphics/SVG/1.1/DTD/svg11.dtd"><!-- Generated by graphviz version 2.40.1 (20161225.0304)
 --><!-- Title: G Pages: 1 --><svg xmlns="http://www.w3.org/2000/svg" xmlns:xlink="http://www.w3.org/1999/xlink" width="1174pt" height="96pt" viewBox="0.00 0.00 1173.83 95.83">
<g id="graph0" class="graph" transform="scale(1 1) rotate(0) translate(4 91.8313)">
<title>G</title>
<polygon fill="#ffffff" stroke="transparent" points="-4,4 -4,-91.8313 1169.8279,-91.8313 1169.8279,4 -4,4"/>
<!-- api gateway -->
<g id="node1" class="node">
<title>api gateway</title>
<ellipse fill="none" stroke="#000000" cx="57.4217" cy="-29.4156" rx="57.3435" ry="18"/>
<text text-anchor="middle" x="57.4217" y="-25.2156" font-family="Times,serif" font-size="14.00" fill="#000000">api gateway</text>
</g>
<!-- lambda -->
<g id="node2" class="node">
<title>lambda</title>
<ellipse fill="none" stroke="#000000" cx="190.3061" cy="-29.4156" rx="39.4254" ry="18"/>
<text text-anchor="middle" x="190.3061" y="-25.2156" font-family="Times,serif" font-size="14.00" fill="#000000">lambda</text>
</g>
<!-- api gateway&#45;&gt;lambda -->
<g id="edge1" class="edge">
<title>api gateway-&gt;lambda</title>
<path fill="none" stroke="#000000" d="M114.9339,-29.4156C123.5111,-29.4156 132.2906,-29.4156 140.6864,-29.4156"/>
<polygon fill="#000000" stroke="#000000" points="140.6979,-32.9157 150.6979,-29.4156 140.6979,-25.9157 140.6979,-32.9157"/>
</g>
<!-- step fn -->
<g id="node3" class="node">
<title>step fn</title>
<ellipse fill="none" stroke="#000000" cx="302.8173" cy="-29.4156" rx="37.097" ry="18"/>
<text text-anchor="middle" x="302.8173" y="-25.2156" font-family="Times,serif" font-size="14.00" fill="#000000">step fn</text>
</g>
<!-- lambda&#45;&gt;step fn -->
<g id="edge2" class="edge">
<title>lambda-&gt;step fn</title>
<path fill="none" stroke="#000000" d="M229.9733,-29.4156C238.2494,-29.4156 247.0516,-29.4156 255.5707,-29.4156"/>
<polygon fill="#000000" stroke="#000000" points="255.7675,-32.9157 265.7675,-29.4156 255.7674,-25.9157 255.7675,-32.9157"/>
</g>
<!-- lambda\n(cfn create stack) -->
<g id="node4" class="node">
<title>lambda\n(cfn create stack)</title>
<ellipse fill="none" stroke="#000000" cx="455.3236" cy="-29.4156" rx="79.4158" ry="29.3315"/>
<text text-anchor="middle" x="455.3236" y="-33.6156" font-family="Times,serif" font-size="14.00" fill="#000000">lambda</text>
<text text-anchor="middle" x="455.3236" y="-16.8156" font-family="Times,serif" font-size="14.00" fill="#000000">(cfn create stack)</text>
</g>
<!-- step fn&#45;&gt;lambda\n(cfn create stack) -->
<g id="edge3" class="edge">
<title>step fn-&gt;lambda\n(cfn create stack)</title>
<path fill="none" stroke="#000000" d="M340.1245,-29.4156C348.0051,-29.4156 356.6443,-29.4156 365.5372,-29.4156"/>
<polygon fill="#000000" stroke="#000000" points="365.6585,-32.9157 375.6585,-29.4156 365.6585,-25.9157 365.6585,-32.9157"/>
</g>
<!-- wait -->
<g id="node5" class="node">
<title>wait</title>
<ellipse fill="none" stroke="#000000" cx="598.4434" cy="-29.4156" rx="27.8248" ry="18"/>
<text text-anchor="middle" x="598.4434" y="-25.2156" font-family="Times,serif" font-size="14.00" fill="#000000">wait</text>
</g>
<!-- lambda\n(cfn create stack)&#45;&gt;wait -->
<g id="edge4" class="edge">
<title>lambda\n(cfn create stack)-&gt;wait</title>
<path fill="none" stroke="#000000" d="M534.8355,-29.4156C543.7827,-29.4156 552.5621,-29.4156 560.6047,-29.4156"/>
<polygon fill="#000000" stroke="#000000" points="560.7053,-32.9157 570.7053,-29.4156 560.7052,-25.9157 560.7053,-32.9157"/>
</g>
<!-- lambda\n(create stack status) -->
<g id="node6" class="node">
<title>lambda\n(create stack status)</title>
<ellipse fill="none" stroke="#000000" cx="751.4696" cy="-58.4156" rx="89.2288" ry="29.3315"/>
<text text-anchor="middle" x="751.4696" y="-62.6156" font-family="Times,serif" font-size="14.00" fill="#000000">lambda</text>
<text text-anchor="middle" x="751.4696" y="-45.8156" font-family="Times,serif" font-size="14.00" fill="#000000">(create stack status)</text>
</g>
<!-- wait&#45;&gt;lambda\n(create stack status) -->
<g id="edge5" class="edge">
<title>wait-&gt;lambda\n(create stack status)</title>
<path fill="none" stroke="#000000" d="M625.0985,-34.4671C636.2305,-36.5767 649.8565,-39.1589 663.9923,-41.8378"/>
<polygon fill="#000000" stroke="#000000" points="663.3589,-45.28 673.8357,-43.7032 664.6623,-38.4024 663.3589,-45.28"/>
</g>
<!-- choice (stack created?) -->
<g id="node7" class="node">
<title>choice (stack created?)</title>
<ellipse fill="none" stroke="#000000" cx="976.3309" cy="-29.4156" rx="99.494" ry="18"/>
<text text-anchor="middle" x="976.3309" y="-25.2156" font-family="Times,serif" font-size="14.00" fill="#000000">choice (stack created?)</text>
</g>
<!-- lambda\n(create stack status)&#45;&gt;choice (stack created?) -->
<g id="edge6" class="edge">
<title>lambda\n(create stack status)-&gt;choice (stack created?)</title>
<path fill="none" stroke="#000000" d="M834.8801,-47.6583C851.2338,-45.5492 868.4669,-43.3267 885.0618,-41.1865"/>
<polygon fill="#000000" stroke="#000000" points="885.8283,-44.6167 895.2985,-39.8663 884.9329,-37.6742 885.8283,-44.6167"/>
</g>
<!-- choice (stack created?)&#45;&gt;wait -->
<g id="edge7" class="edge">
<title>choice (stack created?)-&gt;wait</title>
<path fill="none" stroke="#000000" d="M885.4784,-22.0738C822.6746,-18.1595 737.2337,-15.1314 662.1053,-20.4156 653.3818,-21.0292 644.0355,-22.1101 635.2644,-23.3149"/>
<polygon fill="#000000" stroke="#000000" points="634.6952,-19.8608 625.304,-24.7655 635.704,-26.7877 634.6952,-19.8608"/>
</g>
<!-- end -->
<g id="node8" class="node">
<title>end</title>
<ellipse fill="none" stroke="#000000" cx="1138.8279" cy="-29.4156" rx="27" ry="18"/>
<text text-anchor="middle" x="1138.8279" y="-25.2156" font-family="Times,serif" font-size="14.00" fill="#000000">end</text>
</g>
<!-- choice (stack created?)&#45;&gt;end -->
<g id="edge8" class="edge">
<title>choice (stack created?)-&gt;end</title>
<path fill="none" stroke="#000000" d="M1076.0023,-29.4156C1084.9451,-29.4156 1093.5736,-29.4156 1101.4228,-29.4156"/>
<polygon fill="#000000" stroke="#000000" points="1101.5995,-32.9157 1111.5995,-29.4156 1101.5995,-25.9157 1101.5995,-32.9157"/>
</g>
</g>
</svg>